<svg width="217" height="22" viewBox="0 0 217 22" fill="none" xmlns="http://www.w3.org/2000/svg">
<path d="M9.46875 15.3047L9.80859 14.4609H12.6914L13.0312 15.3047H9.46875ZM8.8125 16.9922L9.14062 16.1484H13.3477L13.7109 16.9922H8.8125ZM8.15625 18.6797L8.48438 17.8359H14.0156L14.3672 18.6797H8.15625ZM1.30078 21H0.386719L8.0625 1.59375H8.97656L16.6406 21H15.7383L8.51953 2.73047L1.30078 21ZM8.625 4.73438L9.10547 5.8125L3.10547 21H2.20312L8.625 4.73438ZM9.5625 6.96094L10.0078 8.12109L4.93359 21H4.01953L9.5625 6.96094ZM10.4531 9.28125L10.8984 10.4648L6.73828 21H5.83594L10.4531 9.28125ZM22.0898 21H21.1758L13.5117 1.59375H14.4141L22.0898 21ZM12.5977 1.59375L20.2734 21H19.3711L11.6953 1.59375H12.5977ZM10.7812 1.59375L18.457 21H17.543L9.87891 1.59375H10.7812ZM34.6406 13.5234V4.125H35.4844V13.5234C35.4844 14.4141 35.1406 15.1797 34.4531 15.8203C33.7734 16.4609 32.9531 16.7812 31.9922 16.7812C31.0312 16.7812 30.207 16.4609 29.5195 15.8203C28.8398 15.1797 28.5 14.4141 28.5 13.5234V4.125H29.3438V13.5234C29.3438 14.1875 29.6016 14.7578 30.1172 15.2344C30.6406 15.7031 31.2656 15.9375 31.9922 15.9375C32.7188 15.9375 33.3398 15.7031 33.8555 15.2344C34.3789 14.7578 34.6406 14.1875 34.6406 13.5234ZM36.3281 13.5234V4.125H37.1719V13.5234C37.1719 14.8906 36.6641 16.0586 35.6484 17.0273C34.6328 17.9883 33.4141 18.4688 31.9922 18.4688C30.5703 18.4688 29.3516 17.9883 28.3359 17.0273C27.3203 16.0586 26.8125 14.8906 26.8125 13.5234V4.125H27.6562V13.5234C27.6562 14.6562 28.0781 15.625 28.9219 16.4297C29.7734 17.2266 30.7969 17.625 31.9922 17.625C33.1797 17.625 34.1992 17.2266 35.0508 16.4297C35.9023 15.625 36.3281 14.6562 36.3281 13.5234ZM38.0156 13.5234V4.125H38.8594V13.5234C38.8594 14.7188 38.5508 15.8281 37.9336 16.8516C37.3164 17.8672 36.4805 18.6719 35.4258 19.2656C34.3711 19.8594 33.2266 20.1562 31.9922 20.1562C30.7578 20.1562 29.6133 19.8594 28.5586 19.2656C27.5039 18.6719 26.668 17.8672 26.0508 16.8516C25.4336 15.8281 25.125 14.7188 25.125 13.5234V4.125H25.9688V13.5234C25.9688 14.5625 26.2383 15.5273 26.7773 16.418C27.3164 17.3086 28.0469 18.0156 28.9688 18.5391C29.8984 19.0547 30.9062 19.3125 31.9922 19.3125C33.0781 19.3125 34.082 19.0547 35.0039 18.5391C35.9336 18.0156 36.668 17.3086 37.207 16.418C37.7461 15.5273 38.0156 14.5625 38.0156 13.5234ZM39.7031 13.5234V4.125H40.5469V13.5234C40.5469 14.6484 40.3203 15.7266 39.8672 16.7578C39.4141 17.7812 38.8047 18.6641 38.0391 19.4062C37.2734 20.1484 36.3633 20.7383 35.3086 21.1758C34.2539 21.6211 33.1484 21.8438 31.9922 21.8438C30.8359 21.8438 29.7305 21.6211 28.6758 21.1758C27.6211 20.7383 26.7109 20.1484 25.9453 19.4062C25.1797 18.6641 24.5703 17.7812 24.1172 16.7578C23.6641 15.7266 23.4375 14.6484 23.4375 13.5234V4.125H24.2812V13.5234C24.2812 14.8672 24.625 16.1133 25.3125 17.2617C26.0078 18.4102 26.9453 19.3203 28.125 19.9922C29.3125 20.6641 30.6016 21 31.9922 21C33.3828 21 34.668 20.6641 35.8477 19.9922C37.0352 19.3203 37.9727 18.4102 38.6602 17.2617C39.3555 16.1133 39.7031 14.8672 39.7031 13.5234ZM47.7305 15.9375V9.1875C47.7305 9.1875 49.2891 9.1875 52.4062 9.1875C53.2734 9.1875 54.0156 9.51562 54.6328 10.1719C55.2578 10.8281 55.5703 11.6172 55.5703 12.5391C55.5703 13.4922 55.2617 14.2969 54.6445 14.9531C54.0273 15.6094 53.2812 15.9375 52.4062 15.9375H47.7305ZM48.5742 15.0938H52.4062C53.0391 15.0938 53.5781 14.8477 54.0234 14.3555C54.4766 13.8633 54.7031 13.2578 54.7031 12.5391C54.7031 11.8516 54.4766 11.2617 54.0234 10.7695C53.5781 10.2773 53.0391 10.0312 52.4062 10.0312H48.5742V15.0938ZM46.8867 16.7812H52.4062C53.5156 16.7812 54.4648 16.3711 55.2539 15.5508C56.043 14.7227 56.4375 13.7188 56.4375 12.5391C56.4375 11.3828 56.0391 10.3945 55.2422 9.57422C54.4531 8.75391 53.5078 8.34375 52.4062 8.34375H46.8867V16.7812ZM46.043 17.625V7.5H52.4062C53.7422 7.5 54.8906 7.99609 55.8516 8.98828C56.8203 9.97266 57.3047 11.1562 57.3047 12.5391C57.3047 13.9531 56.8242 15.1562 55.8633 16.1484C54.9023 17.1328 53.75 17.625 52.4062 17.625H46.043ZM45.1992 18.4688H52.4062C53.4375 18.4688 54.3945 18.207 55.2773 17.6836C56.1602 17.1602 56.8633 16.4414 57.3867 15.5273C57.9102 14.6133 58.1719 13.6172 58.1719 12.5391C58.1719 11.4844 57.9102 10.5039 57.3867 9.59766C56.8633 8.69141 56.1562 7.97656 55.2656 7.45312C54.3828 6.92188 53.4297 6.65625 52.4062 6.65625H45.1992V18.4688ZM44.3555 19.3125V5.8125H52.4062C53.5859 5.8125 54.6836 6.11328 55.6992 6.71484C56.7227 7.31641 57.5352 8.13672 58.1367 9.17578C58.7383 10.207 59.0391 11.3281 59.0391 12.5391C59.0391 13.7656 58.7383 14.9023 58.1367 15.9492C57.5352 16.9883 56.7227 17.8086 55.6992 18.4102C54.6836 19.0117 53.5859 19.3125 52.4062 19.3125H44.3555ZM43.5117 20.1562H52.4062C53.7422 20.1562 54.9844 19.8203 56.1328 19.1484C57.2812 18.4688 58.1953 17.543 58.875 16.3711C59.5625 15.1992 59.9062 13.9219 59.9062 12.5391C59.9062 11.1797 59.5625 9.91797 58.875 8.75391C58.1953 7.58203 57.2773 6.66016 56.1211 5.98828C54.9727 5.30859 53.7344 4.96875 52.4062 4.96875H43.5117V20.1562ZM52.4062 21H42.668V4.125H52.4062C53.8906 4.125 55.2734 4.50391 56.5547 5.26172C57.8438 6.01172 58.8672 7.03516 59.625 8.33203C60.3906 9.62109 60.7734 11.0234 60.7734 12.5391C60.7734 13.6875 60.5469 14.7852 60.0938 15.832C59.6484 16.8789 59.0469 17.7812 58.2891 18.5391C57.5391 19.2891 56.6484 19.8867 55.6172 20.332C54.5859 20.7773 53.5156 21 52.4062 21ZM69.0352 12.9375H74.1211C74.793 12.9375 75.3633 12.7266 75.832 12.3047C76.3008 11.8828 76.5352 11.2891 76.5352 10.5234C76.5352 9.96094 76.2891 9.45703 75.7969 9.01172C75.3125 8.56641 74.7539 8.34375 74.1211 8.34375H66.8789V21H66.0352V7.5H74.1211C74.9883 7.5 75.7461 7.80469 76.3945 8.41406C77.0508 9.02344 77.3789 9.72656 77.3789 10.5234C77.3789 11.5156 77.0625 12.3086 76.4297 12.9023C75.7969 13.4883 75.0273 13.7812 74.1211 13.7812H69.0352V12.9375ZM69.0352 14.625H74.1211C75.2461 14.625 76.2109 14.2422 77.0156 13.4766C77.8203 12.7109 78.2227 11.7266 78.2227 10.5234C78.2227 9.5 77.8125 8.60156 76.9922 7.82812C76.1719 7.04688 75.2148 6.65625 74.1211 6.65625H65.1914V21H64.3477V5.8125H74.1211C75.4492 5.8125 76.6055 6.28516 77.5898 7.23047C78.5742 8.16797 79.0664 9.26562 79.0664 10.5234C79.0664 11.9297 78.5781 13.1055 77.6016 14.0508C76.6328 14.9961 75.4727 15.4688 74.1211 15.4688H69.0352V14.625ZM69.0352 16.3125H74.1211C75.1602 16.3125 76.1211 16.0625 77.0039 15.5625C77.8867 15.0625 78.5898 14.3672 79.1133 13.4766C79.6445 12.5859 79.9102 11.6016 79.9102 10.5234C79.9102 9.54688 79.6484 8.63281 79.125 7.78125C78.6016 6.92188 77.8906 6.23828 76.9922 5.73047C76.1016 5.22266 75.1445 4.96875 74.1211 4.96875H63.5039V21H62.6602V4.125H74.1211C75.0039 4.125 75.8516 4.30078 76.6641 4.65234C77.4844 4.99609 78.1914 5.45703 78.7852 6.03516C79.3789 6.60547 79.8555 7.28516 80.2148 8.07422C80.5742 8.86328 80.7539 9.67969 80.7539 10.5234C80.7539 11.8906 80.4414 13.0859 79.8164 14.1094C79.1914 15.125 78.3516 15.8984 77.2969 16.4297L79.0664 21H78.1641L76.4883 16.7695C76.2773 16.8398 76.0312 16.9102 75.75 16.9805L77.332 21H76.4297L74.8828 17.1211C74.6406 17.1445 74.3867 17.1562 74.1211 17.1562L75.6094 21H74.7188L73.2422 17.1562H72.4805L73.8984 21H73.0078L71.5781 17.1562H69.0352V16.3125ZM68.5664 21H67.7227V9.1875H74.1211C74.5586 9.1875 74.9297 9.32031 75.2344 9.58594C75.5391 9.84375 75.6914 10.1562 75.6914 10.5234C75.6914 11.5703 75.168 12.0938 74.1211 12.0938H69.0352V11.25H74.1211C74.6055 11.25 74.8477 11.0078 74.8477 10.5234C74.8477 10.3906 74.7734 10.2773 74.625 10.1836C74.4844 10.082 74.3164 10.0312 74.1211 10.0312H68.5664V21ZM86.8477 21H86.0039V4.125H86.8477V21ZM85.1602 21H84.3164V4.125H85.1602V21ZM83.4727 21H82.6289V4.125H83.4727V21ZM88.5352 16.7812H96.6094V17.625H88.5352V18.4688H96.6094V19.3125H88.5352V20.1562H96.6094V21H87.6914V4.125H96.6094V4.96875H88.5352V5.8125H96.6094V6.65625H88.5352V7.5H96.6094V8.34375H88.5352V10.4414H96.1406V11.2852H88.5352V12.1289H96.1406V12.9727H88.5352V13.8164H96.1406V14.6602H88.5352V16.7812ZM113.953 4.125H114.797L109.488 15.3047V21H108.645V15.3047L113.953 4.125ZM112.266 4.125H113.109L107.801 15.3047V21H106.957V15.3047L112.266 4.125ZM110.578 4.125H111.422L106.113 15.3047V21H105.27V15.3047L110.578 4.125ZM108.891 4.125H109.734L104.426 15.3047V21H103.582V15.3047L97.9219 4.125H98.7656L103.992 14.4492L108.891 4.125ZM99.6211 4.125H100.465L104.648 12.082L104.227 13.0078L99.6211 4.125ZM101.309 4.125H102.164L105.492 10.2305L105.059 11.1562L101.309 4.125ZM103.02 4.125H103.863L106.336 8.39062L105.914 9.31641L103.02 4.125Z" fill="#B550F8"/>
<path d="M123.07 8.01562C122.164 8.92188 121.711 10.0156 121.711 11.2969C121.711 12.5781 122.164 13.6719 123.07 14.5781C123.977 15.4844 125.07 15.9375 126.352 15.9375C127.633 15.9375 128.727 15.4844 129.633 14.5781C130.539 13.6719 130.992 12.5781 130.992 11.2969C130.992 10.0156 130.539 8.92188 129.633 8.01562C128.727 7.10938 127.633 6.65625 126.352 6.65625C125.07 6.65625 123.977 7.10938 123.07 8.01562ZM121.301 13.4297C121.012 12.75 120.867 12.0391 120.867 11.2969C120.867 10.5547 121.012 9.84766 121.301 9.17578C121.59 8.49609 121.98 7.91016 122.473 7.41797C122.965 6.92578 123.547 6.53516 124.219 6.24609C124.898 5.95703 125.609 5.8125 126.352 5.8125C127.094 5.8125 127.801 5.95703 128.473 6.24609C129.152 6.53516 129.738 6.92578 130.23 7.41797C130.723 7.91016 131.113 8.49609 131.402 9.17578C131.691 9.84766 131.836 10.5547 131.836 11.2969C131.836 12.0391 131.691 12.75 131.402 13.4297C131.113 14.1016 130.723 14.6836 130.23 15.1758C129.738 15.668 129.152 16.0586 128.473 16.3477C127.801 16.6367 127.094 16.7812 126.352 16.7812C125.609 16.7812 124.898 16.6367 124.219 16.3477C123.547 16.0586 122.965 15.668 122.473 15.1758C121.98 14.6836 121.59 14.1016 121.301 13.4297ZM120.867 8.12109C120.305 9.08984 120.023 10.1484 120.023 11.2969C120.023 12.4453 120.305 13.5039 120.867 14.4727C121.438 15.4414 122.207 16.2109 123.176 16.7812C124.145 17.3438 125.203 17.625 126.352 17.625C127.5 17.625 128.559 17.3438 129.527 16.7812C130.496 16.2109 131.262 15.4414 131.824 14.4727C132.395 13.5039 132.68 12.4453 132.68 11.2969C132.68 10.1484 132.395 9.08984 131.824 8.12109C131.262 7.15234 130.496 6.38672 129.527 5.82422C128.559 5.25391 127.5 4.96875 126.352 4.96875C125.203 4.96875 124.145 5.25391 123.176 5.82422C122.207 6.38672 121.438 7.15234 120.867 8.12109ZM120.141 14.8945C119.5 13.793 119.18 12.5938 119.18 11.2969C119.18 10 119.5 8.80078 120.141 7.69922C120.781 6.59766 121.652 5.72656 122.754 5.08594C123.855 4.44531 125.055 4.125 126.352 4.125C127.648 4.125 128.848 4.44531 129.949 5.08594C131.051 5.72656 131.922 6.59766 132.562 7.69922C133.203 8.80078 133.523 10 133.523 11.2969C133.523 12.5938 133.203 13.793 132.562 14.8945C131.922 15.9961 131.051 16.8672 129.949 17.5078C128.848 18.1484 127.648 18.4688 126.352 18.4688C125.055 18.4688 123.855 18.1484 122.754 17.5078C121.652 16.8672 120.781 15.9961 120.141 14.8945ZM118.969 8.17969C118.547 9.17188 118.336 10.2109 118.336 11.2969C118.336 12.3828 118.547 13.4219 118.969 14.4141C119.391 15.4062 119.957 16.2617 120.668 16.9805C121.387 17.6914 122.242 18.2578 123.234 18.6797C124.227 19.1016 125.266 19.3125 126.352 19.3125C127.438 19.3125 128.477 19.1016 129.469 18.6797C130.461 18.2578 131.312 17.6914 132.023 16.9805C132.742 16.2617 133.312 15.4062 133.734 14.4141C134.156 13.4219 134.367 12.3828 134.367 11.2969C134.367 10.2109 134.156 9.17188 133.734 8.17969C133.312 7.1875 132.742 6.33594 132.023 5.625C131.312 4.90625 130.461 4.33594 129.469 3.91406C128.477 3.49219 127.438 3.28125 126.352 3.28125C125.266 3.28125 124.227 3.49219 123.234 3.91406C122.242 4.33594 121.387 4.90625 120.668 5.625C119.957 6.33594 119.391 7.1875 118.969 8.17969ZM118.676 15.7383C117.887 14.3789 117.492 12.8984 117.492 11.2969C117.492 9.69531 117.887 8.21484 118.676 6.85547C119.473 5.49609 120.551 4.42188 121.91 3.63281C123.27 2.83594 124.75 2.4375 126.352 2.4375C127.953 2.4375 129.434 2.83594 130.793 3.63281C132.152 4.42188 133.227 5.49609 134.016 6.85547C134.812 8.21484 135.211 9.69531 135.211 11.2969C135.211 12.8984 134.812 14.3789 134.016 15.7383C133.227 17.0977 132.152 18.1758 130.793 18.9727C129.434 19.7617 127.953 20.1562 126.352 20.1562C124.75 20.1562 123.27 19.7617 121.91 18.9727C120.551 18.1758 119.473 17.0977 118.676 15.7383ZM117.41 7.53516C116.902 8.73047 116.648 9.98438 116.648 11.2969C116.648 12.6094 116.902 13.8672 117.41 15.0703C117.926 16.2656 118.617 17.2969 119.484 18.1641C120.352 19.0312 121.383 19.7227 122.578 20.2383C123.781 20.7461 125.039 21 126.352 21C127.664 21 128.918 20.7461 130.113 20.2383C131.316 19.7227 132.352 19.0312 133.219 18.1641C134.086 17.2969 134.773 16.2656 135.281 15.0703C135.797 13.8672 136.055 12.6094 136.055 11.2969C136.055 9.98438 135.797 8.73047 135.281 7.53516C134.773 6.33203 134.086 5.29688 133.219 4.42969C132.352 3.5625 131.316 2.875 130.113 2.36719C128.918 1.85156 127.664 1.59375 126.352 1.59375C125.039 1.59375 123.781 1.85156 122.578 2.36719C121.383 2.875 120.352 3.5625 119.484 4.42969C118.617 5.29688 117.926 6.33203 117.41 7.53516ZM116.637 15.3984C116.082 14.0938 115.805 12.7266 115.805 11.2969C115.805 9.86719 116.082 8.50391 116.637 7.20703C117.199 5.90234 117.949 4.78125 118.887 3.84375C119.832 2.89844 120.953 2.14844 122.25 1.59375C123.555 1.03125 124.922 0.75 126.352 0.75C127.781 0.75 129.145 1.03125 130.441 1.59375C131.746 2.14844 132.867 2.89844 133.805 3.84375C134.75 4.78125 135.5 5.90234 136.055 7.20703C136.617 8.50391 136.898 9.86719 136.898 11.2969C136.898 12.7266 136.617 14.0938 136.055 15.3984C135.5 16.6953 134.75 17.8164 133.805 18.7617C132.867 19.6992 131.746 20.4453 130.441 21C129.145 21.5625 127.781 21.8438 126.352 21.8438C124.922 21.8438 123.555 21.5625 122.25 21C120.953 20.4453 119.832 19.6992 118.887 18.7617C117.949 17.8164 117.199 16.6953 116.637 15.3984ZM151.957 14.1914L151.113 12.6562V4.125H151.957V14.1914ZM153.645 17.1094L152.801 15.6797V4.125H153.645V17.1094ZM142.02 10.9336L142.863 12.4688V21H142.02V10.9336ZM140.332 7.89844L141.176 9.44531V21H140.332V7.89844ZM140.625 4.125H141.609L151.383 21H150.398L140.625 4.125ZM142.617 4.125H143.613L153.375 21H152.367L142.617 4.125ZM144.598 4.125H145.582L154.488 19.5352V4.125H155.332V21H154.336L144.598 4.125ZM139.488 5.57812V21H138.645V4.125H139.652L149.391 21H148.418L139.488 5.57812ZM172.852 4.125H173.695L168.387 15.3047V21H167.543V15.3047L172.852 4.125ZM171.164 4.125H172.008L166.699 15.3047V21H165.855V15.3047L171.164 4.125ZM169.477 4.125H170.32L165.012 15.3047V21H164.168V15.3047L169.477 4.125ZM167.789 4.125H168.633L163.324 15.3047V21H162.48V15.3047L156.82 4.125H157.664L162.891 14.4492L167.789 4.125ZM158.52 4.125H159.363L163.547 12.082L163.125 13.0078L158.52 4.125ZM160.207 4.125H161.062L164.391 10.2305L163.957 11.1562L160.207 4.125ZM161.918 4.125H162.762L165.234 8.39062L164.812 9.31641L161.918 4.125ZM180.199 4.125H181.043V21H180.199V4.125ZM178.512 4.125H179.355V21H178.512V4.125ZM176.824 4.125H177.668V21H176.824V4.125ZM175.137 4.125H175.98V21H175.137V4.125ZM200.977 4.125L196.277 12.6328L200.906 21H199.969L195.34 12.6328L200.039 4.125H200.977ZM199.09 4.125L194.391 12.6328L199.02 21H198.082L193.453 12.6328L198.152 4.125H199.09ZM197.203 4.125L192.504 12.6328L197.133 21H196.195L191.566 12.6328L196.266 4.125H197.203ZM195.316 4.125L190.605 12.6328L195.246 21H194.309L189.668 12.6328L194.379 4.125H195.316ZM188.309 4.125V21H189.152V4.125H188.309ZM186.621 4.125V21H187.465V4.125H186.621ZM184.934 4.125V21H185.777V4.125H184.934ZM183.246 4.125V21H184.09V4.125H183.246ZM206.707 21H205.863V4.125H206.707V21ZM205.02 21H204.176V4.125H205.02V21ZM203.332 21H202.488V4.125H203.332V21ZM208.395 16.7812H216.469V17.625H208.395V18.4688H216.469V19.3125H208.395V20.1562H216.469V21H207.551V4.125H216.469V4.96875H208.395V5.8125H216.469V6.65625H208.395V7.5H216.469V8.34375H208.395V10.4414H216V11.2852H208.395V12.1289H216V12.9727H208.395V13.8164H216V14.6602H208.395V16.7812Z" fill="white"/>
</svg>
