<svg width="1125" height="567" viewBox="0 0 1125 567" fill="none" xmlns="http://www.w3.org/2000/svg">
<g clip-path="url(#clip0_293_3512)">
<rect width="1125" height="567" fill="white"/>
<rect width="345.218" height="1397.52" transform="translate(20 28)" fill="white"/>
<rect width="345.218" height="152.471" transform="translate(20 50.7747)" fill="#C4C4C4"/>
<rect x="34.3838" y="68.9946" width="144.364" height="16.7815" rx="8.39073" fill="#E6E6E6"/>
<rect x="34.3838" y="92.2183" width="155.662" height="16.7815" rx="8.39073" fill="#E6E6E6"/>
<rect x="34.3838" y="115.442" width="103.566" height="16.7815" rx="8.39073" fill="#E6E6E6"/>
<rect x="34.3838" y="174.216" width="43.5184" height="11.0714" rx="1.91788" fill="#757575"/>
<rect x="40.1377" y="176.614" width="25.7345" height="3.35629" rx="1.67815" fill="#E6E6E6"/>
<rect x="118.646" y="178.269" width="1.61839" height="2.96687" rx="0.809196" fill="#E6E6E6"/>
<rect x="87.2939" y="176.614" width="21.3408" height="3.35629" rx="1.67815" fill="#E6E6E6"/>
<rect x="34.3838" y="147.508" width="79.0864" height="3.35629" rx="1.67815" fill="#E6E6E6"/>
<rect x="34.3838" y="153.784" width="137.46" height="3.35629" rx="1.67815" fill="#E6E6E6"/>
<rect x="34.3838" y="160.061" width="111.725" height="3.35629" rx="1.67815" fill="#E6E6E6"/>
<rect width="345.218" height="179.322" transform="translate(20 203.246)" fill="#757575"/>
<rect x="36.0625" y="235.37" width="28.2451" height="4.19536" rx="2.09768" fill="#E6E6E6"/>
<rect x="32.4668" y="257.426" width="122.396" height="10.0689" rx="5.03443" fill="#E6E6E6"/>
<rect x="32.4668" y="269.352" width="104.821" height="10.0689" rx="5.03443" fill="#E6E6E6"/>
<rect x="211.788" y="216.671" width="68.0847" height="69.0437" rx="1.91788" fill="white"/>
<rect x="216.583" y="241.604" width="24.4791" height="4.19536" rx="2.09768" fill="#E6E6E6"/>
<rect x="216.583" y="251.073" width="32.6388" height="3.35629" rx="1.67815" fill="#E6E6E6"/>
<rect x="216.583" y="257.35" width="46.4476" height="3.35629" rx="1.67815" fill="#E6E6E6"/>
<rect x="211.788" y="290.51" width="68.0847" height="69.0437" rx="1.91788" fill="white"/>
<rect x="216.583" y="315.442" width="11.9257" height="4.19536" rx="2.09768" fill="#E6E6E6"/>
<rect x="216.583" y="324.911" width="30.7558" height="3.35629" rx="1.67815" fill="#E6E6E6"/>
<rect x="216.583" y="331.188" width="35.7772" height="3.35629" rx="1.67815" fill="#E6E6E6"/>
<rect x="216.583" y="337.465" width="54.6073" height="3.35629" rx="1.67815" fill="#E6E6E6"/>
<rect x="216.583" y="343.741" width="45.8199" height="3.35629" rx="1.67815" fill="#E6E6E6"/>
<rect x="284.667" y="226.26" width="68.0847" height="69.0437" rx="1.91788" fill="white"/>
<rect x="289.462" y="251.193" width="22.5961" height="4.19536" rx="2.09768" fill="#E6E6E6"/>
<rect x="289.462" y="260.662" width="41.4262" height="3.35629" rx="1.67815" fill="#E6E6E6"/>
<rect x="289.462" y="266.939" width="40.7985" height="3.35629" rx="1.67815" fill="#E6E6E6"/>
<rect x="284.667" y="300.099" width="68.0847" height="69.0437" rx="1.91788" fill="white"/>
<rect x="289.462" y="325.031" width="19.4578" height="4.19536" rx="2.09768" fill="#E6E6E6"/>
<rect x="289.462" y="334.501" width="42.0539" height="3.35629" rx="1.67815" fill="#E6E6E6"/>
<rect x="289.462" y="340.778" width="43.3092" height="3.35629" rx="1.67815" fill="#E6E6E6"/>
<rect x="289.462" y="347.054" width="39.5432" height="3.35629" rx="1.67815" fill="#E6E6E6"/>
<rect x="289.462" y="353.331" width="39.5432" height="3.35629" rx="1.67815" fill="#E6E6E6"/>
<rect x="32.4668" y="289.91" width="75.3204" height="3.35629" rx="1.67815" fill="#E6E6E6"/>
<rect x="32.4668" y="296.187" width="78.4587" height="3.35629" rx="1.67815" fill="#E6E6E6"/>
<rect x="32.4668" y="302.463" width="104.193" height="3.35629" rx="1.67815" fill="#E6E6E6"/>
<rect x="32.4668" y="308.74" width="109.215" height="3.35629" rx="1.67815" fill="#E6E6E6"/>
<rect x="32.4668" y="315.017" width="86.6184" height="3.35629" rx="1.67815" fill="#E6E6E6"/>
<rect x="32.4668" y="321.294" width="84.7354" height="3.35629" rx="1.67815" fill="#E6E6E6"/>
<rect x="32.4668" y="327.57" width="126.162" height="3.35629" rx="1.67815" fill="#E6E6E6"/>
<rect x="36.0625" y="396.951" width="45.8199" height="4.19536" rx="2.09768" fill="#E6E6E6"/>
<rect x="32.4668" y="417.089" width="129.3" height="10.0689" rx="5.03443" fill="#E6E6E6"/>
<rect x="32.4668" y="429.015" width="133.694" height="10.0689" rx="5.03443" fill="#E6E6E6"/>
<rect x="171.645" y="554.436" width="42.298" height="11.0714" rx="1.91788" fill="#757575"/>
<rect x="178.356" y="556.833" width="15.0641" height="3.35629" rx="1.67815" fill="#E6E6E6"/>
<g clip-path="url(#clip1_293_3512)">
<rect width="102.127" height="83.9072" transform="translate(34.8633 447.776)" fill="#616161"/>
<g clip-path="url(#clip2_293_3512)">
<g clip-path="url(#clip3_293_3512)">
<rect x="34.8633" y="440.579" width="102.127" height="98.3003" rx="49.1502" fill="#E6E6E6"/>
<rect x="34.8633" y="440.579" width="102.127" height="98.3003" rx="49.1502" fill="#E6E6E6"/>
</g>
</g>
<g clip-path="url(#clip4_293_3512)">
<g clip-path="url(#clip5_293_3512)">
<rect x="39.3398" y="452.251" width="6.39293" height="6.39293" rx="3.19646" fill="#E6E6E6"/>
<rect x="40.7217" y="453.903" width="3.62606" height="3.0878" rx="1.5439" fill="#E6E6E6"/>
</g>
</g>
<rect x="60.4365" y="520.656" width="3.83576" height="3.83576" rx="1.91788" fill="#E6E6E6"/>
<rect x="61.8086" y="521.614" width="1.18429" height="1.91788" rx="0.592145" fill="#E6E6E6"/>
<rect x="38.6992" y="519.336" width="20.0854" height="3.35629" rx="1.67815" fill="#E6E6E6"/>
<rect x="38.6992" y="472.349" width="20.7131" height="3.35629" rx="1.67815" fill="#E6E6E6"/>
<rect x="38.6992" y="482.178" width="82.2247" height="3.35629" rx="1.67815" fill="#E6E6E6"/>
<rect x="38.6992" y="488.455" width="74.065" height="3.35629" rx="1.67815" fill="#E6E6E6"/>
<rect x="38.6992" y="494.731" width="92.2675" height="3.35629" rx="1.67815" fill="#E6E6E6"/>
<rect x="38.6992" y="501.008" width="57.1179" height="3.35629" rx="1.67815" fill="#E6E6E6"/>
<rect width="102.127" height="83.9072" transform="translate(141.786 447.776)" fill="#616161"/>
<g clip-path="url(#clip6_293_3512)">
<g clip-path="url(#clip7_293_3512)">
<rect x="141.786" y="440.579" width="102.127" height="98.3003" rx="49.1502" fill="#E6E6E6"/>
<rect x="141.786" y="440.579" width="102.127" height="98.3003" rx="49.1502" fill="#E6E6E6"/>
</g>
</g>
<g clip-path="url(#clip8_293_3512)">
<g clip-path="url(#clip9_293_3512)">
<rect x="146.261" y="452.251" width="6.39293" height="6.39293" rx="3.19646" fill="#E6E6E6"/>
<rect x="147.644" y="453.903" width="3.62606" height="3.0878" rx="1.5439" fill="#E6E6E6"/>
</g>
</g>
<rect x="167.358" y="520.656" width="3.83576" height="3.83576" rx="1.91788" fill="#E6E6E6"/>
<rect x="168.73" y="521.614" width="1.18429" height="1.91788" rx="0.592145" fill="#E6E6E6"/>
<rect x="145.621" y="519.336" width="16.9471" height="3.35629" rx="1.67815" fill="#E6E6E6"/>
<rect x="145.621" y="472.349" width="14.4364" height="3.35629" rx="1.67815" fill="#E6E6E6"/>
<rect x="145.621" y="482.178" width="69.6713" height="3.35629" rx="1.67815" fill="#E6E6E6"/>
<rect x="145.621" y="488.455" width="56.4903" height="3.35629" rx="1.67815" fill="#E6E6E6"/>
<rect width="102.127" height="83.9072" transform="translate(248.707 447.776)" fill="#616161"/>
<g clip-path="url(#clip10_293_3512)">
<g clip-path="url(#clip11_293_3512)">
<rect x="248.707" y="440.579" width="102.127" height="98.3003" rx="49.1502" fill="#E6E6E6"/>
<rect x="248.707" y="440.579" width="102.127" height="98.3003" rx="49.1502" fill="#E6E6E6"/>
</g>
</g>
<g clip-path="url(#clip12_293_3512)">
<g clip-path="url(#clip13_293_3512)">
<rect x="253.184" y="452.25" width="6.39293" height="6.39293" rx="3.19646" fill="#E6E6E6"/>
<rect x="254.565" y="453.903" width="3.62606" height="3.0878" rx="1.5439" fill="#E6E6E6"/>
</g>
</g>
<rect x="274.281" y="520.656" width="3.83576" height="3.83576" rx="1.91788" fill="#E6E6E6"/>
<rect x="275.654" y="521.614" width="1.18429" height="1.91788" rx="0.592145" fill="#E6E6E6"/>
<rect x="252.543" y="519.336" width="20.0854" height="3.35629" rx="1.67815" fill="#E6E6E6"/>
<rect x="252.543" y="472.349" width="26.3621" height="3.35629" rx="1.67815" fill="#E6E6E6"/>
<rect x="252.543" y="482.178" width="58.3733" height="3.35629" rx="1.67815" fill="#E6E6E6"/>
<rect x="252.543" y="488.455" width="85.9908" height="3.35629" rx="1.67815" fill="#E6E6E6"/>
<rect x="252.543" y="494.731" width="81.5971" height="3.35629" rx="1.67815" fill="#E6E6E6"/>
<rect x="252.543" y="501.008" width="81.5971" height="3.35629" rx="1.67815" fill="#E6E6E6"/>
</g>
<g opacity="0.75" clip-path="url(#clip14_293_3512)">
<rect width="4.10172" height="4.10172" rx="2.05086" transform="matrix(1 0 0 -1 176.174 532.361)" fill="#E6E6E6"/>
</g>
<g opacity="0.25" clip-path="url(#clip15_293_3512)">
<rect width="4.10172" height="4.10172" rx="2.05086" transform="matrix(1 0 0 -1 183.367 532.361)" fill="#E6E6E6"/>
</g>
<g opacity="0.25" clip-path="url(#clip16_293_3512)">
<rect width="4.10172" height="4.10172" rx="2.05086" transform="matrix(1 0 0 -1 190.558 532.361)" fill="#E6E6E6"/>
</g>
<g opacity="0.25" clip-path="url(#clip17_293_3512)">
<rect width="4.10172" height="4.10172" rx="2.05086" transform="matrix(1 0 0 -1 197.75 532.361)" fill="#E6E6E6"/>
</g>
<g opacity="0.25" clip-path="url(#clip18_293_3512)">
<rect width="4.10172" height="4.10172" rx="2.05086" transform="matrix(1 0 0 -1 204.942 532.361)" fill="#E6E6E6"/>
</g>
<g opacity="0.75" clip-path="url(#clip19_293_3512)">
<rect width="4.10172" height="4.10172" rx="2.05086" transform="matrix(1 0 0 -1 25.6201 491.487)" fill="#E6E6E6"/>
</g>
<rect x="25.2744" y="487.571" width="7.19205" height="7.19205" rx="3.59602" fill="#E6E6E6"/>
<rect x="27.6709" y="489.369" width="2.22055" height="3.59602" rx="1.11027" fill="#E6E6E6"/>
<g opacity="0.75" clip-path="url(#clip20_293_3512)">
<rect width="4.10172" height="4.10172" rx="2.05086" transform="matrix(1 0 0 -1 355.496 491.487)" fill="#E6E6E6"/>
</g>
<rect x="355.149" y="487.571" width="7.19205" height="7.19205" rx="3.59602" fill="#E6E6E6"/>
<rect x="357.725" y="489.369" width="2.22055" height="3.59602" rx="1.11027" fill="#E6E6E6"/>
<rect width="345.218" height="22.7461" transform="translate(20 28)" fill="white"/>
<rect x="174.975" y="36.2351" width="6.90437" height="3.35629" rx="1.67815" fill="#E6E6E6"/>
<rect x="196.477" y="36.2351" width="5.64903" height="3.35629" rx="1.67815" fill="#E6E6E6"/>
<rect x="235.24" y="36.9758" width="4.7947" height="4.7947" rx="2.39735" fill="#E6E6E6"/>
<rect x="236.438" y="38.6917" width="2.39735" height="1.48036" rx="0.740182" fill="#E6E6E6"/>
<rect x="217.958" y="36.2351" width="10.6704" height="3.35629" rx="1.67815" fill="#E6E6E6"/>
<rect x="268.162" y="36.9758" width="4.7947" height="4.7947" rx="2.39735" fill="#E6E6E6"/>
<rect x="269.362" y="38.6917" width="2.39735" height="1.48036" rx="0.740182" fill="#E6E6E6"/>
<rect x="249" y="36.2351" width="11.2981" height="3.35629" rx="1.67815" fill="#E6E6E6"/>
<rect x="288.889" y="33.8594" width="24.0334" height="11.0278" rx="0.95894" fill="white"/>
<g clip-path="url(#clip21_293_3512)">
<rect x="291.525" y="36.8562" width="8.78738" height="2.93675" rx="1.46838" fill="#E6E6E6"/>
</g>
<rect x="306.45" y="38.6541" width="2.39735" height="1.43841" rx="0.719205" fill="#E6E6E6"/>
<rect x="317.718" y="33.8379" width="35.3936" height="11.0714" rx="1.91788" fill="#757575"/>
<rect x="324.43" y="36.2351" width="13.8087" height="3.35629" rx="1.67815" fill="#E6E6E6"/>
<rect width="345.218" height="1397.52" transform="translate(389 -521)" fill="white"/>
<rect width="345.218" height="209.528" transform="translate(389 29.6714)" fill="#757575"/>
<rect x="405.062" y="51.7271" width="79.0864" height="4.19536" rx="2.09768" fill="#E6E6E6"/>
<g opacity="0.75" clip-path="url(#clip22_293_3512)">
<rect width="4.10172" height="4.10172" rx="2.05086" transform="matrix(1 0 0 -1 395.819 165.92)" fill="#E6E6E6"/>
</g>
<g clip-path="url(#clip23_293_3512)">
<rect x="403.863" y="110.222" width="102.127" height="107.881" rx="1.43841" fill="white"/>
<rect x="408.658" y="117.774" width="68.416" height="3.35629" rx="1.67815" fill="#E6E6E6"/>
<rect x="408.658" y="124.051" width="49.5859" height="3.35629" rx="1.67815" fill="#E6E6E6"/>
<rect x="408.658" y="133.116" width="86.6184" height="3.35629" rx="1.67815" fill="#E6E6E6"/>
<rect x="408.658" y="139.393" width="51.4689" height="3.35629" rx="1.67815" fill="#E6E6E6"/>
<rect x="408.658" y="145.67" width="82.8524" height="3.35629" rx="1.67815" fill="#E6E6E6"/>
<rect x="408.658" y="151.947" width="65.9053" height="3.35629" rx="1.67815" fill="#E6E6E6"/>
<rect x="408.658" y="158.223" width="86.6184" height="3.35629" rx="1.67815" fill="#E6E6E6"/>
<rect x="408.658" y="164.5" width="74.6927" height="3.35629" rx="1.67815" fill="#E6E6E6"/>
<rect x="408.658" y="170.777" width="67.7883" height="3.35629" rx="1.67815" fill="#E6E6E6"/>
<rect x="408.658" y="177.053" width="84.1078" height="3.35629" rx="1.67815" fill="#E6E6E6"/>
<rect x="423.043" y="201.441" width="17.5748" height="3.35629" rx="1.67815" fill="#E6E6E6"/>
<rect x="510.786" y="110.222" width="102.127" height="107.881" rx="1.43841" fill="white"/>
<rect x="515.58" y="117.774" width="70.9267" height="3.35629" rx="1.67815" fill="#E6E6E6"/>
<rect x="515.58" y="124.051" width="75.3204" height="3.35629" rx="1.67815" fill="#E6E6E6"/>
<rect x="515.58" y="133.116" width="60.2563" height="3.35629" rx="1.67815" fill="#E6E6E6"/>
<rect x="515.58" y="139.393" width="63.3946" height="3.35629" rx="1.67815" fill="#E6E6E6"/>
<rect x="515.58" y="145.67" width="84.7354" height="3.35629" rx="1.67815" fill="#E6E6E6"/>
<rect x="515.58" y="151.947" width="70.299" height="3.35629" rx="1.67815" fill="#E6E6E6"/>
<rect x="515.58" y="158.223" width="83.4801" height="3.35629" rx="1.67815" fill="#E6E6E6"/>
<rect x="515.58" y="164.5" width="89.1291" height="3.35629" rx="1.67815" fill="#E6E6E6"/>
<rect x="515.58" y="170.777" width="50.2136" height="3.35629" rx="1.67815" fill="#E6E6E6"/>
<rect x="529.965" y="203.719" width="34.5218" height="3.35629" rx="1.67815" fill="#E6E6E6"/>
<rect x="617.707" y="110.222" width="102.127" height="107.881" rx="1.43841" fill="white"/>
<rect x="622.501" y="117.774" width="66.533" height="3.35629" rx="1.67815" fill="#E6E6E6"/>
<rect x="622.501" y="124.051" width="52.7243" height="3.35629" rx="1.67815" fill="#E6E6E6"/>
<rect x="622.501" y="133.116" width="58.3733" height="3.35629" rx="1.67815" fill="#E6E6E6"/>
<rect x="622.501" y="139.393" width="64.65" height="3.35629" rx="1.67815" fill="#E6E6E6"/>
<rect x="622.501" y="145.67" width="72.8097" height="3.35629" rx="1.67815" fill="#E6E6E6"/>
<rect x="622.501" y="151.947" width="52.7243" height="3.35629" rx="1.67815" fill="#E6E6E6"/>
<rect x="622.501" y="158.223" width="72.8097" height="3.35629" rx="1.67815" fill="#E6E6E6"/>
<rect x="622.501" y="164.5" width="70.299" height="3.35629" rx="1.67815" fill="#E6E6E6"/>
<rect x="622.501" y="170.777" width="85.3631" height="3.35629" rx="1.67815" fill="#E6E6E6"/>
<rect x="636.885" y="203.239" width="38.9155" height="3.35629" rx="1.67815" fill="#E6E6E6"/>
</g>
<g opacity="0.75" clip-path="url(#clip24_293_3512)">
<rect width="4.10172" height="4.10172" rx="2.05086" transform="matrix(1 0 0 -1 723.297 165.92)" fill="#E6E6E6"/>
</g>
<g opacity="0.75" clip-path="url(#clip25_293_3512)">
<rect width="4.10172" height="4.10172" rx="2.05086" transform="matrix(1 0 0 -1 552.367 223.576)" fill="#E6E6E6"/>
</g>
<g opacity="0.25" clip-path="url(#clip26_293_3512)">
<rect width="4.10172" height="4.10172" rx="2.05086" transform="matrix(1 0 0 -1 559.558 223.576)" fill="#E6E6E6"/>
</g>
<g opacity="0.25" clip-path="url(#clip27_293_3512)">
<rect width="4.10172" height="4.10172" rx="2.05086" transform="matrix(1 0 0 -1 566.75 223.576)" fill="#E6E6E6"/>
</g>
<rect x="401.467" y="75.7" width="152.524" height="10.0689" rx="5.03443" fill="#E6E6E6"/>
<rect width="345.218" height="66.9368" transform="translate(389 239.2)" fill="#F9FAFB"/>
<rect x="548.114" y="248.79" width="21.9684" height="3.35629" rx="1.67815" fill="#E6E6E6"/>
<rect x="562.901" y="321.916" width="30.1282" height="4.19536" rx="2.09768" fill="#E6E6E6"/>
<rect x="559.306" y="338.218" width="99.7995" height="10.0689" rx="5.03443" fill="#E6E6E6"/>
<rect x="559.306" y="350.143" width="65.9053" height="10.0689" rx="5.03443" fill="#E6E6E6"/>
<g clip-path="url(#clip28_293_3512)">
<g clip-path="url(#clip29_293_3512)">
<rect x="560.127" y="371.644" width="9.86338" height="9.86338" rx="4.93169" fill="#E6E6E6"/>
<rect x="560.127" y="371.644" width="9.86338" height="9.86338" rx="4.93169" fill="#E6E6E6"/>
<rect x="563.004" y="374.521" width="4.10974" height="4.10974" rx="2.05487" fill="#E6E6E6"/>
</g>
</g>
<rect x="559.306" y="398.151" width="27.6175" height="3.35629" rx="1.67815" fill="#E6E6E6"/>
<g clip-path="url(#clip30_293_3512)">
<g clip-path="url(#clip31_293_3512)">
<mask id="mask0_293_3512" style="mask-type:luminance" maskUnits="userSpaceOnUse" x="653" y="374" width="6" height="6">
<rect x="653.885" y="374.109" width="4.93169" height="4.93169" rx="2.46585" fill="white"/>
</mask>
<g mask="url(#mask0_293_3512)">
<rect x="654.808" y="374.109" width="3.08231" height="4.93169" rx="1.54115" fill="#E6E6E6"/>
<rect x="656.04" y="377.807" width="0.616461" height="0.616461" rx="0.308231" fill="#E6E6E6"/>
</g>
<rect x="651.419" y="371.644" width="9.86338" height="9.86338" rx="4.93169" fill="#E6E6E6"/>
<rect x="651.419" y="371.644" width="9.86338" height="9.86338" rx="4.93169" fill="#E6E6E6"/>
</g>
</g>
<rect x="650.596" y="398.151" width="29.5005" height="3.35629" rx="1.67815" fill="#E6E6E6"/>
<g clip-path="url(#clip32_293_3512)">
<g clip-path="url(#clip33_293_3512)">
<rect x="560.127" y="419.59" width="9.86338" height="9.86338" rx="4.93169" fill="#E6E6E6"/>
<rect x="560.127" y="419.59" width="9.86338" height="9.86338" rx="4.93169" fill="#E6E6E6"/>
<rect x="563.209" y="422.364" width="2.46585" height="4.007" rx="1.23292" fill="#E6E6E6"/>
<rect x="562.902" y="423.288" width="4.31523" height="3.08231" rx="1.54115" fill="#E6E6E6"/>
<rect x="565.367" y="423.596" width="1.54115" height="2.77408" rx="0.770577" fill="#E6E6E6"/>
</g>
</g>
<rect x="559.306" y="439.866" width="35.1495" height="2.93675" rx="1.46838" fill="#E6E6E6"/>
<rect x="559.306" y="446.142" width="36.4049" height="2.93675" rx="1.46838" fill="#E6E6E6"/>
<rect x="589.013" y="456.927" width="1.78304" height="2.83945" rx="0.89152" fill="#E6E6E6"/>
<rect x="559.306" y="455.208" width="16.3194" height="3.35629" rx="1.67815" fill="#E6E6E6"/>
<g clip-path="url(#clip34_293_3512)">
<g clip-path="url(#clip35_293_3512)">
<rect x="651.419" y="419.59" width="9.86338" height="9.86338" rx="4.93169" fill="#E6E6E6"/>
<rect x="651.419" y="419.59" width="9.86338" height="9.86338" rx="4.93169" fill="#E6E6E6"/>
<rect x="654.096" y="422.604" width="4.49364" height="3.8362" rx="1.9181" fill="#E6E6E6"/>
</g>
</g>
<rect x="650.685" y="440.914" width="5.57384" height="5.54013" rx="2.77006" fill="#E6E6E6"/>
<rect x="659.586" y="441.183" width="5.03443" height="5.03443" rx="2.51722" fill="#E6E6E6"/>
<rect x="668.158" y="441.364" width="5.17153" height="4.67483" rx="2.33742" fill="#E6E6E6"/>
<rect x="676.847" y="441.183" width="5.03443" height="5.03443" rx="2.51722" fill="#E6E6E6"/>
<rect width="158.798" height="186.499" transform="translate(389 305.614)" fill="#030303"/>
<g clip-path="url(#clip36_293_3512)">
<rect width="345.218" height="166.995" transform="translate(389 492.113)" fill="#F9FAFB"/>
<rect x="405.062" y="512.25" width="38.2879" height="4.19536" rx="2.09768" fill="#E6E6E6"/>
<rect x="401.467" y="529.511" width="173.237" height="10.0689" rx="5.03443" fill="#E6E6E6"/>
<rect x="401.467" y="541.437" width="158.8" height="10.0689" rx="5.03443" fill="#E6E6E6"/>
<rect x="401.467" y="557.201" width="79.0864" height="3.35629" rx="1.67815" fill="#E6E6E6"/>
<rect x="401.467" y="563.477" width="128.672" height="3.35629" rx="1.67815" fill="#E6E6E6"/>
</g>
<rect x="559.306" y="385.206" width="6.2767" height="3.35629" rx="1.67815" fill="#E6E6E6"/>
<rect x="559.306" y="391.918" width="33.2665" height="3.35629" rx="1.67815" fill="#E6E6E6"/>
<rect x="650.596" y="385.206" width="12.5534" height="3.35629" rx="1.67815" fill="#E6E6E6"/>
<rect x="650.596" y="391.918" width="23.2238" height="3.35629" rx="1.67815" fill="#E6E6E6"/>
<rect x="559.306" y="433.153" width="10.0427" height="3.35629" rx="1.67815" fill="#E6E6E6"/>
<rect x="650.596" y="433.153" width="13.1811" height="3.35629" rx="1.67815" fill="#E6E6E6"/>
<rect width="345.218" height="1397.52" transform="translate(758 -833)" fill="white"/>
<rect x="931.901" y="9.91553" width="30.1282" height="4.19536" rx="2.09768" fill="#E6E6E6"/>
<rect x="928.306" y="26.2178" width="99.7995" height="10.0689" rx="5.03443" fill="#E6E6E6"/>
<rect x="928.306" y="38.1433" width="65.9053" height="10.0689" rx="5.03443" fill="#E6E6E6"/>
<g clip-path="url(#clip37_293_3512)">
<g clip-path="url(#clip38_293_3512)">
<rect x="929.127" y="59.6443" width="9.86338" height="9.86338" rx="4.93169" fill="#E6E6E6"/>
<rect x="929.127" y="59.6443" width="9.86338" height="9.86338" rx="4.93169" fill="#E6E6E6"/>
<rect x="932.004" y="62.5208" width="4.10974" height="4.10974" rx="2.05487" fill="#E6E6E6"/>
</g>
</g>
<rect x="928.306" y="86.1514" width="27.6175" height="3.35629" rx="1.67815" fill="#E6E6E6"/>
<g clip-path="url(#clip39_293_3512)">
<g clip-path="url(#clip40_293_3512)">
<mask id="mask1_293_3512" style="mask-type:luminance" maskUnits="userSpaceOnUse" x="1022" y="62" width="6" height="6">
<rect x="1022.88" y="62.1086" width="4.93169" height="4.93169" rx="2.46585" fill="white"/>
</mask>
<g mask="url(#mask1_293_3512)">
<rect x="1023.81" y="62.1086" width="3.08231" height="4.93169" rx="1.54115" fill="#E6E6E6"/>
<rect x="1025.04" y="65.8071" width="0.616461" height="0.616461" rx="0.308231" fill="#E6E6E6"/>
</g>
<rect x="1020.42" y="59.6443" width="9.86338" height="9.86338" rx="4.93169" fill="#E6E6E6"/>
<rect x="1020.42" y="59.6443" width="9.86338" height="9.86338" rx="4.93169" fill="#E6E6E6"/>
</g>
</g>
<rect x="1019.6" y="86.1509" width="29.5005" height="3.35629" rx="1.67815" fill="#E6E6E6"/>
<g clip-path="url(#clip41_293_3512)">
<g clip-path="url(#clip42_293_3512)">
<rect x="929.127" y="107.59" width="9.86338" height="9.86338" rx="4.93169" fill="#E6E6E6"/>
<rect x="929.127" y="107.59" width="9.86338" height="9.86338" rx="4.93169" fill="#E6E6E6"/>
<rect x="932.209" y="110.364" width="2.46585" height="4.007" rx="1.23292" fill="#E6E6E6"/>
<rect x="931.902" y="111.288" width="4.31523" height="3.08231" rx="1.54115" fill="#E6E6E6"/>
<rect x="934.367" y="111.596" width="1.54115" height="2.77408" rx="0.770577" fill="#E6E6E6"/>
</g>
</g>
<rect x="928.306" y="127.866" width="35.1495" height="2.93675" rx="1.46838" fill="#E6E6E6"/>
<rect x="928.306" y="134.142" width="36.4049" height="2.93675" rx="1.46838" fill="#E6E6E6"/>
<rect x="958.013" y="144.927" width="1.78304" height="2.83945" rx="0.89152" fill="#E6E6E6"/>
<rect x="928.306" y="143.208" width="16.3194" height="3.35629" rx="1.67815" fill="#E6E6E6"/>
<g clip-path="url(#clip43_293_3512)">
<g clip-path="url(#clip44_293_3512)">
<rect x="1020.42" y="107.59" width="9.86338" height="9.86338" rx="4.93169" fill="#E6E6E6"/>
<rect x="1020.42" y="107.59" width="9.86338" height="9.86338" rx="4.93169" fill="#E6E6E6"/>
<rect x="1023.1" y="110.604" width="4.49364" height="3.8362" rx="1.9181" fill="#E6E6E6"/>
</g>
</g>
<rect x="1019.68" y="128.914" width="5.57384" height="5.54013" rx="2.77006" fill="#E6E6E6"/>
<rect x="1028.59" y="129.183" width="5.03443" height="5.03443" rx="2.51722" fill="#E6E6E6"/>
<rect x="1037.16" y="129.364" width="5.17153" height="4.67483" rx="2.33742" fill="#E6E6E6"/>
<rect x="1045.85" y="129.183" width="5.03443" height="5.03443" rx="2.51722" fill="#E6E6E6"/>
<rect width="158.798" height="186.499" transform="translate(758 -6.38599)" fill="#030303"/>
<rect width="345.218" height="93.9761" transform="translate(758 347.107)" fill="#757575"/>
<rect width="345.218" height="93.9761" transform="translate(758 347.107)" fill="#757575"/>
<rect x="770.467" y="360.533" width="320.286" height="67.1258" rx="2.87682" fill="#757575"/>
<rect x="785.809" y="401.009" width="94.8344" height="11.346" rx="0.95894" fill="white"/>
<g clip-path="url(#clip45_293_3512)">
<rect x="788.686" y="404.365" width="32.6388" height="3.35629" rx="1.67815" fill="#E6E6E6"/>
</g>
<rect x="785.809" y="375.876" width="107.332" height="6.29304" rx="3.14652" fill="#E6E6E6"/>
<rect x="785.809" y="387.383" width="190.184" height="3.35629" rx="1.67815" fill="#E6E6E6"/>
<g clip-path="url(#clip46_293_3512)">
<rect width="345.218" height="166.995" transform="translate(758 180.113)" fill="#F9FAFB"/>
<rect x="774.062" y="200.25" width="38.2879" height="4.19536" rx="2.09768" fill="#E6E6E6"/>
<rect x="770.467" y="217.511" width="173.237" height="10.0689" rx="5.03443" fill="#E6E6E6"/>
<rect x="770.467" y="229.437" width="158.8" height="10.0689" rx="5.03443" fill="#E6E6E6"/>
<rect x="770.467" y="279.843" width="47.7029" height="5.03443" rx="2.51722" fill="#E6E6E6"/>
<rect x="770.467" y="288.002" width="49.5859" height="5.03443" rx="2.51722" fill="#E6E6E6"/>
<rect x="727.434" y="331.884" width="57.2967" height="57.2967" rx="28.6483" fill="#E6E6E6" stroke="#E6E6E6" stroke-width="0.239735"/>
<rect x="770.467" y="245.201" width="79.0864" height="3.35629" rx="1.67815" fill="#E6E6E6"/>
<rect x="770.467" y="251.477" width="128.672" height="3.35629" rx="1.67815" fill="#E6E6E6"/>
<rect x="770.467" y="299.86" width="45.1922" height="3.35629" rx="1.67815" fill="#E6E6E6"/>
<rect x="770.467" y="306.136" width="51.4689" height="3.35629" rx="1.67815" fill="#E6E6E6"/>
<rect x="770.467" y="312.413" width="65.2777" height="3.35629" rx="1.67815" fill="#E6E6E6"/>
<rect x="770.467" y="318.69" width="57.7456" height="3.35629" rx="1.67815" fill="#E6E6E6"/>
<rect x="852.935" y="299.68" width="65.9053" height="3.35629" rx="1.67815" fill="#E6E6E6"/>
<rect x="852.935" y="305.957" width="79.7141" height="3.35629" rx="1.67815" fill="#E6E6E6"/>
<rect x="852.935" y="312.233" width="50.2136" height="3.35629" rx="1.67815" fill="#E6E6E6"/>
<rect x="962.891" y="299.04" width="77.2034" height="3.35629" rx="1.67815" fill="#E6E6E6"/>
<rect x="962.891" y="305.317" width="69.0437" height="3.35629" rx="1.67815" fill="#E6E6E6"/>
<rect x="962.891" y="311.593" width="87.8738" height="3.35629" rx="1.67815" fill="#E6E6E6"/>
<rect x="962.891" y="317.87" width="97.2888" height="3.35629" rx="1.67815" fill="#E6E6E6"/>
<rect x="962.891" y="324.147" width="106.704" height="3.35629" rx="1.67815" fill="#E6E6E6"/>
</g>
<rect x="928.306" y="73.2058" width="6.2767" height="3.35629" rx="1.67815" fill="#E6E6E6"/>
<rect x="928.306" y="79.918" width="33.2665" height="3.35629" rx="1.67815" fill="#E6E6E6"/>
<rect x="1019.6" y="73.2058" width="12.5534" height="3.35629" rx="1.67815" fill="#E6E6E6"/>
<rect x="1019.6" y="79.918" width="23.2238" height="3.35629" rx="1.67815" fill="#E6E6E6"/>
<rect x="928.306" y="121.153" width="10.0427" height="3.35629" rx="1.67815" fill="#E6E6E6"/>
<rect x="1019.6" y="121.153" width="13.1811" height="3.35629" rx="1.67815" fill="#E6E6E6"/>
<rect width="143.841" height="123.435" transform="translate(758 441.084)" fill="white"/>
<rect x="773.343" y="540.28" width="35.3936" height="11.0714" rx="1.91788" fill="#757575"/>
<rect x="780.056" y="542.678" width="18.8301" height="3.35629" rx="1.67815" fill="#E6E6E6"/>
<rect x="773.343" y="484.923" width="60.884" height="10.0689" rx="5.03443" fill="#E6E6E6"/>
<rect x="773.343" y="496.849" width="55.2349" height="10.0689" rx="5.03443" fill="#E6E6E6"/>
<rect x="773.343" y="515.49" width="77.8311" height="3.35629" rx="1.67815" fill="#E6E6E6"/>
<rect x="773.343" y="521.767" width="95.4058" height="3.35629" rx="1.67815" fill="#E6E6E6"/>
<rect x="773.343" y="528.043" width="59.001" height="3.35629" rx="1.67815" fill="#E6E6E6"/>
<rect width="201.377" height="123.435" transform="translate(901.841 441.083)" fill="#757575"/>
<rect x="917.185" y="476.085" width="11.9257" height="3.35629" rx="1.67815" fill="#E6E6E6"/>
<rect x="917.185" y="487.396" width="15.0641" height="3.35629" rx="1.67815" fill="#E6E6E6"/>
<rect x="917.185" y="498.707" width="12.5534" height="3.35629" rx="1.67815" fill="#E6E6E6"/>
<rect x="917.185" y="510.017" width="6.2767" height="3.35629" rx="1.67815" fill="#E6E6E6"/>
<rect x="963.693" y="476.085" width="17.5748" height="3.35629" rx="1.67815" fill="#E6E6E6"/>
<rect x="963.693" y="487.396" width="9.41505" height="3.35629" rx="1.67815" fill="#E6E6E6"/>
<rect x="963.693" y="493.673" width="28.2451" height="3.35629" rx="1.67815" fill="#E6E6E6"/>
<rect x="963.693" y="504.355" width="21.3408" height="3.35629" rx="1.67815" fill="#E6E6E6"/>
<rect x="963.693" y="515.667" width="21.3408" height="3.35629" rx="1.67815" fill="#E6E6E6"/>
<rect x="963.693" y="526.979" width="15.6917" height="3.35629" rx="1.67815" fill="#E6E6E6"/>
<rect x="1010.2" y="476.085" width="11.2981" height="3.35629" rx="1.67815" fill="#E6E6E6"/>
<rect x="1010.2" y="487.396" width="5.02136" height="3.35629" rx="1.67815" fill="#E6E6E6"/>
<rect x="1010.2" y="498.707" width="8.78738" height="3.35629" rx="1.67815" fill="#E6E6E6"/>
<rect x="1056.71" y="475.605" width="29.7271" height="6.71258" rx="3.35629" fill="white"/>
<rect x="1057.74" y="476.639" width="4.64487" height="4.61677" rx="2.30839" fill="#E6E6E6"/>
<rect x="1065.64" y="476.864" width="4.19536" height="4.19536" rx="2.09768" fill="#E6E6E6"/>
<rect x="1073.26" y="477.013" width="4.30961" height="3.89569" rx="1.94785" fill="#E6E6E6"/>
<rect x="1080.98" y="476.864" width="4.19536" height="4.19536" rx="2.09768" fill="#E6E6E6"/>
<rect x="917.185" y="464.098" width="27.6175" height="4.19536" rx="2.09768" fill="#E6E6E6"/>
<rect x="963.693" y="464.098" width="14.4364" height="4.19536" rx="2.09768" fill="#E6E6E6"/>
<rect x="1010.2" y="464.098" width="12.5534" height="4.19536" rx="2.09768" fill="#E6E6E6"/>
<rect x="1056.71" y="464.098" width="23.8515" height="4.19536" rx="2.09768" fill="#E6E6E6"/>
<rect x="977.785" y="543.81" width="30.1282" height="3.35629" rx="1.67815" fill="#E6E6E6"/>
<rect x="1091.71" y="551.093" width="7.67152" height="7.67152" rx="1.43841" fill="white"/>
<rect x="1093.91" y="553.251" width="3.27163" height="3.35666" rx="1.63582" fill="#E6E6E6"/>
</g>
<defs>
<clipPath id="clip0_293_3512">
<rect width="1125" height="567" fill="white"/>
</clipPath>
<clipPath id="clip1_293_3512">
<rect width="320.286" height="83.9072" fill="white" transform="translate(32.4668 447.775)"/>
</clipPath>
<clipPath id="clip2_293_3512">
<rect width="102.127" height="83.9072" fill="white" transform="translate(34.8633 447.776)"/>
</clipPath>
<clipPath id="clip3_293_3512">
<rect width="102.127" height="98.3003" fill="white" transform="translate(34.8633 440.579)"/>
</clipPath>
<clipPath id="clip4_293_3512">
<rect width="7.67152" height="7.67152" fill="white" transform="translate(38.6992 451.612)"/>
</clipPath>
<clipPath id="clip5_293_3512">
<rect width="7.67152" height="7.67152" fill="white" transform="translate(38.6992 451.612)"/>
</clipPath>
<clipPath id="clip6_293_3512">
<rect width="102.127" height="83.9072" fill="white" transform="translate(141.786 447.776)"/>
</clipPath>
<clipPath id="clip7_293_3512">
<rect width="102.127" height="98.3003" fill="white" transform="translate(141.786 440.579)"/>
</clipPath>
<clipPath id="clip8_293_3512">
<rect width="7.67152" height="7.67152" fill="white" transform="translate(145.621 451.612)"/>
</clipPath>
<clipPath id="clip9_293_3512">
<rect width="7.67152" height="7.67152" fill="white" transform="translate(145.621 451.611)"/>
</clipPath>
<clipPath id="clip10_293_3512">
<rect width="102.127" height="83.9072" fill="white" transform="translate(248.707 447.776)"/>
</clipPath>
<clipPath id="clip11_293_3512">
<rect width="102.127" height="98.3003" fill="white" transform="translate(248.707 440.579)"/>
</clipPath>
<clipPath id="clip12_293_3512">
<rect width="7.67152" height="7.67152" fill="white" transform="translate(252.543 451.612)"/>
</clipPath>
<clipPath id="clip13_293_3512">
<rect width="7.67152" height="7.67152" fill="white" transform="translate(252.543 451.612)"/>
</clipPath>
<clipPath id="clip14_293_3512">
<rect width="4.7947" height="4.7947" fill="white" transform="matrix(1 0 0 -1 175.827 532.881)"/>
</clipPath>
<clipPath id="clip15_293_3512">
<rect width="4.7947" height="4.7947" fill="white" transform="matrix(1 0 0 -1 183.02 532.881)"/>
</clipPath>
<clipPath id="clip16_293_3512">
<rect width="4.7947" height="4.7947" fill="white" transform="matrix(1 0 0 -1 190.212 532.881)"/>
</clipPath>
<clipPath id="clip17_293_3512">
<rect width="4.7947" height="4.7947" fill="white" transform="matrix(1 0 0 -1 197.403 532.881)"/>
</clipPath>
<clipPath id="clip18_293_3512">
<rect width="4.7947" height="4.7947" fill="white" transform="matrix(1 0 0 -1 204.597 532.881)"/>
</clipPath>
<clipPath id="clip19_293_3512">
<rect width="4.7947" height="4.55496" fill="white" transform="matrix(1 0 0 -1 25.2744 491.886)"/>
</clipPath>
<clipPath id="clip20_293_3512">
<rect width="4.7947" height="4.55496" fill="white" transform="matrix(1 0 0 -1 355.149 491.886)"/>
</clipPath>
<clipPath id="clip21_293_3512">
<rect width="12.5262" height="5.64903" fill="white" transform="translate(291.525 36.8562)"/>
</clipPath>
<clipPath id="clip22_293_3512">
<rect width="4.7947" height="4.55496" fill="white" transform="matrix(1 0 0 -1 395.473 166.32)"/>
</clipPath>
<clipPath id="clip23_293_3512">
<rect width="320.286" height="107.881" fill="white" transform="translate(401.467 110.222)"/>
</clipPath>
<clipPath id="clip24_293_3512">
<rect width="4.7947" height="4.55496" fill="white" transform="matrix(1 0 0 -1 722.951 166.32)"/>
</clipPath>
<clipPath id="clip25_293_3512">
<rect width="4.7947" height="4.7947" fill="white" transform="matrix(1 0 0 -1 552.02 224.096)"/>
</clipPath>
<clipPath id="clip26_293_3512">
<rect width="4.7947" height="4.7947" fill="white" transform="matrix(1 0 0 -1 559.212 224.096)"/>
</clipPath>
<clipPath id="clip27_293_3512">
<rect width="4.7947" height="4.7947" fill="white" transform="matrix(1 0 0 -1 566.403 224.096)"/>
</clipPath>
<clipPath id="clip28_293_3512">
<rect width="11.5073" height="11.5073" fill="white" transform="translate(559.306 370.822)"/>
</clipPath>
<clipPath id="clip29_293_3512">
<rect width="11.5073" height="11.5073" fill="white" transform="translate(559.306 370.822)"/>
</clipPath>
<clipPath id="clip30_293_3512">
<rect width="11.5073" height="11.5073" fill="white" transform="translate(650.596 370.822)"/>
</clipPath>
<clipPath id="clip31_293_3512">
<rect width="11.5073" height="11.5073" fill="white" transform="translate(650.596 370.822)"/>
</clipPath>
<clipPath id="clip32_293_3512">
<rect width="11.5073" height="11.5073" fill="white" transform="translate(559.306 418.769)"/>
</clipPath>
<clipPath id="clip33_293_3512">
<rect width="11.5073" height="11.5073" fill="white" transform="translate(559.306 418.768)"/>
</clipPath>
<clipPath id="clip34_293_3512">
<rect width="11.5073" height="11.5073" fill="white" transform="translate(650.596 418.769)"/>
</clipPath>
<clipPath id="clip35_293_3512">
<rect width="11.5073" height="11.5073" fill="white" transform="translate(650.596 418.768)"/>
</clipPath>
<clipPath id="clip36_293_3512">
<rect width="345.218" height="166.995" fill="white" transform="translate(389 492.113)"/>
</clipPath>
<clipPath id="clip37_293_3512">
<rect width="11.5073" height="11.5073" fill="white" transform="translate(928.306 58.8215)"/>
</clipPath>
<clipPath id="clip38_293_3512">
<rect width="11.5073" height="11.5073" fill="white" transform="translate(928.306 58.8218)"/>
</clipPath>
<clipPath id="clip39_293_3512">
<rect width="11.5073" height="11.5073" fill="white" transform="translate(1019.6 58.8215)"/>
</clipPath>
<clipPath id="clip40_293_3512">
<rect width="11.5073" height="11.5073" fill="white" transform="translate(1019.6 58.8218)"/>
</clipPath>
<clipPath id="clip41_293_3512">
<rect width="11.5073" height="11.5073" fill="white" transform="translate(928.306 106.769)"/>
</clipPath>
<clipPath id="clip42_293_3512">
<rect width="11.5073" height="11.5073" fill="white" transform="translate(928.306 106.768)"/>
</clipPath>
<clipPath id="clip43_293_3512">
<rect width="11.5073" height="11.5073" fill="white" transform="translate(1019.6 106.769)"/>
</clipPath>
<clipPath id="clip44_293_3512">
<rect width="11.5073" height="11.5073" fill="white" transform="translate(1019.6 106.768)"/>
</clipPath>
<clipPath id="clip45_293_3512">
<rect width="89.0807" height="4.39369" fill="white" transform="translate(788.686 404.365)"/>
</clipPath>
<clipPath id="clip46_293_3512">
<rect width="345.218" height="166.995" fill="white" transform="translate(758 180.113)"/>
</clipPath>
</defs>
</svg>
